<svg xmlns="http://www.w3.org/2000/svg" width="1636.9" height="274.5" viewBox="0 0 433.1 72.6">
  <g fill="#fff" font-weight="400" letter-spacing="0" word-spacing="0">
    <g font-family="Josefin Sans" font-size="42">
      <path d="M-331.3 133.4c0-.4.2-.8.4-1 .3-.3.6-.4 1-.4.3 0 .6.1 1 .4.2.2.3.6.3 1 0 .3 0 .7-.4 1l-.9.3c-.4 0-.7 0-1-.3-.2-.3-.4-.7-.4-1zm-.6 28.8c-.7.1-1.4-.8-1.2-1.2 0 0 1.2-1.6 1.7-2.6.4-1 .6-2.2.6-3.5v-16c0-.5 1.7-.6 1.7 0v16c0 1.6-.2 3-.8 4.3-.4 1.2-2 3-2 3zM-327 147q0-1.6.7-3.1.7-1.6 1.8-2.6 1-1.2 2.6-1.8 1.5-.7 3.2-.7 1.7 0 3.2.7 1.5.6 2.7 1.8 1.1 1 1.7 2.6.7 1.5.7 3.1 0 1.8-.7 3.3-.6 1.4-1.7 2.5-1.2 1.1-2.7 1.8-1.5.6-3.2.6-1.7 0-3.2-.6-1.5-.7-2.6-1.8-1.1-1-1.8-2.5-.6-1.5-.6-3.3zm1.8 0q0 1.4.5 2.6.5 1.1 1.4 2 .9.9 2 1.4 1.2.5 2.6.5 1.3 0 2.5-.5t2-1.4q1-.9 1.4-2 .6-1.2.6-2.6 0-1.3-.6-2.5-.5-1.1-1.3-2-1-1-2-1.4-1.3-.6-2.6-.6-1.4 0-2.5.6-1.2.5-2 1.4-1 .9-1.5 2-.5 1.2-.5 2.5zM-335.4 154.9h-1.6v-4a7.5 7.5 0 0 1-6.9 4.4 5 5 0 0 1-3.7-1.4c-.9-.8-1.4-2-1.4-3.4v-11.3c0-.5 1.7-.7 1.7 0V150c.1.9.4 1.6 1 2.3.6.7 1.5 1 2.7 1.1.8 0 1.6-.1 2.4-.5.8-.2 1.5-.6 2-1.1a5.3 5.3 0 0 0 2-4.1v-8.6c0-.6 1.8-.6 1.8 0zM-369.4 140.9s-1.7.2-2.5.5a5.7 5.7 0 0 0-3.3 3c-.3.7-.5 1.4-.5 2.2v8.6h-1.8v-15.7c0-.5 1.6-.5 1.6 0v4.1a7 7 0 0 1 2.8-3.2c1.3-.8 3.9-1.2 3.9-1.2.4.2.4 1.6-.2 1.7zM-367.5 147c0 1 .2 1.8.5 2.6.3.7.8 1.4 1.3 2a6.5 6.5 0 0 0 4.7 2 6.4 6.4 0 0 0 6-9 6.4 6.4 0 0 0-6-4c-1 0-1.8.1-2.6.4-.8.4-1.5.8-2 1.4a6.7 6.7 0 0 0-2 4.6zm-1.8 0a7.9 7.9 0 0 1 2.4-5.7c.8-.8 1.7-1.3 2.7-1.8a7.9 7.9 0 0 1 9 2c.4.4.7 1 .9 1.4a40.7 40.7 0 0 1 .1-3.7c0-.4 1.5-.4 1.5 0v12.1c0 .5-1.5.5-1.6 0a6.7 6.7 0 0 1-4.3 3.6c-.7.2-1.5.3-2.4.3a8.3 8.3 0 0 1-7.6-5c-.5-1-.7-2-.7-3.2zM-392.5 128.4s-5 12.7-5.2 12.6h10.4zm13 26.8h-1.8l-5.3-12.6h-11.8s-5.2 12.7-5.3 12.6h-1.8l12.3-30.4c.1-.4 1.2-.4 1.3 0l12.4 30.4z" style="line-height:0;-inkscape-font-specification:'Josefin Sans'" transform="matrix(1.85783 0 0 1.85783 1009.8 -228.8)"/>
    </g>
    <path d="M-497.8 109c0 .9.2 1.7.5 2.5.4.8.8 1.5 1.4 2a6.5 6.5 0 0 0 7.2 1.5 6.4 6.4 0 0 0 4-6c0-.9-.2-1.7-.6-2.5a6.4 6.4 0 0 0-6-4 6.4 6.4 0 0 0-4.6 1.9 6.7 6.7 0 0 0-1.9 4.6zm-1.7 0a8 8 0 0 1 5-7.5 7.9 7.9 0 0 1 7.5.6c.6.4 1.1.8 1.5 1.3l1 1.4c-.2-.6-.2-1.2-.3-1.9-.2-5.8 0-17.5 0-17.5 0-.4 1.8-.4 1.8 0v27.8c-.8 1-1.6 0-1.6 0l-.9 1.5a6.7 6.7 0 0 1-3.4 2.1 8.3 8.3 0 0 1-8.3-2 8 8 0 0 1-2.3-5.8zM-472.1 102.8s-1.7.2-2.5.5a5.7 5.7 0 0 0-3.3 3c-.4.7-.5 1.5-.5 2.3v8.6h-1.8v-15.7c0-.5 1.6-.5 1.6 0v4a7 7 0 0 1 2.8-3.2c1.3-.8 3.8-1.2 3.8-1.2.5.3.5 1.7-.1 1.7zM-444.8 102.7c.3.4-.6 1.4-1 1.2 0 0-.8-.7-1.5-1l-1.8-.3c-.3 0-.7 0-1 .2-.3 0-.7.2-1 .4a2 2 0 0 0-.6.8l-.2 1.2c0 .6.2 1 .6 1.5l1.4.8 1.9.7c.7.2 1.3.5 1.8.8.6.3 1 .8 1.4 1.3.4.5.6 1.2.6 2.1 0 .5 0 1-.3 1.6-.2.5-.4 1-.8 1.5a5 5 0 0 1-1.6 1.2c-.6.3-1.4.5-2.4.5-.8 0-1.7-.2-2.7-.5-1-.3-2.2-1.5-2.2-1.5-.2-.4.5-1.4 1.1-1.2a6.6 6.6 0 0 0 4 1.5c.2 0 .5 0 .9-.2a4 4 0 0 0 1-.5c.4-.2.6-.5.9-.9.2-.4.3-.8.3-1.3 0-.8-.1-1.3-.5-1.7-.4-.4-.8-.7-1.4-1a11 11 0 0 0-1.9-.6l-1.9-.7c-.5-.3-1-.7-1.4-1.2-.4-.5-.6-1.3-.6-2.2 0-.7.2-1.3.4-1.9a4.1 4.1 0 0 1 2.6-2.1c.5-.2 1-.3 1.6-.3a7 7 0 0 1 2 .4c1 .2 2.3 1.4 2.3 1.4z" font-family="Josefin Sans" font-size="42" style="line-height:0;-inkscape-font-specification:'Josefin Sans'" transform="matrix(1.85783 0 0 1.85783 1009.8 -158)"/>
    <path d="M-444.8 102.7c.3.4-.6 1.4-1 1.2 0 0-.8-.7-1.5-1l-1.8-.3c-.3 0-.7 0-1 .2-.3 0-.7.2-1 .4a2 2 0 0 0-.6.8l-.2 1.2c0 .6.2 1 .6 1.5l1.4.8 1.9.7c.7.2 1.3.5 1.8.8.6.3 1 .8 1.4 1.3.4.5.6 1.2.6 2.1 0 .5 0 1-.3 1.6-.2.5-.4 1-.8 1.5a5 5 0 0 1-1.6 1.2c-.6.3-1.4.5-2.4.5-.8 0-1.7-.2-2.7-.5-1-.3-2.2-1.5-2.2-1.5-.2-.4.5-1.4 1.1-1.2a6.6 6.6 0 0 0 4 1.5c.2 0 .5 0 .9-.2a4 4 0 0 0 1-.5c.4-.2.6-.5.9-.9.2-.4.3-.8.3-1.3 0-.8-.1-1.3-.5-1.7-.4-.4-.8-.7-1.4-1a11 11 0 0 0-1.9-.6l-1.9-.7c-.5-.3-1-.7-1.4-1.2-.4-.5-.6-1.3-.6-2.2 0-.7.2-1.3.4-1.9a4.1 4.1 0 0 1 2.6-2.1c.5-.2 1-.3 1.6-.3a7 7 0 0 1 2 .4c1 .2 2.3 1.4 2.3 1.4zM-433.4 102.7c.4.4-.5 1.4-1 1.2 0 0-.8-.7-1.4-1l-1.8-.3c-.4 0-.7 0-1 .2-.4 0-.7.2-1 .4a2 2 0 0 0-.6.8c-.2.3-.2.7-.2 1.2 0 .6.2 1 .6 1.5l1.4.8 1.9.7 1.8.8c.6.3 1 .8 1.4 1.3.4.5.6 1.2.6 2.1l-.3 1.6-.9 1.5a5 5 0 0 1-1.5 1.2c-.7.3-1.4.5-2.4.5-.9 0-1.8-.2-2.7-.5-1-.3-2.3-1.5-2.3-1.5-.1-.4.6-1.4 1.2-1.2 0 0 1 .8 1.7 1 .8.3 1.5.5 2.2.5.3 0 .6 0 1-.2a4 4 0 0 0 1-.5c.3-.2.6-.5.8-.9.3-.4.4-.8.4-1.3 0-.8-.2-1.3-.5-1.7-.4-.4-.9-.7-1.5-1a11 11 0 0 0-1.8-.6l-1.9-.7c-.6-.3-1-.7-1.4-1.2-.4-.5-.6-1.3-.6-2.2a4.1 4.1 0 0 1 3-4l1.5-.3a7 7 0 0 1 2.2.4c.8.2 2.1 1.4 2.1 1.4zM-514.9 101.5c0-.5 1.6-.5 1.6 0v4a7.5 7.5 0 0 1 6.9-4.4 5 5 0 0 1 3.7 1.3c.9.9 1.4 2 1.4 3.4v11.4h-1.8v-11c0-.8-.3-1.6-1-2.3-.5-.6-1.4-1-2.6-1-.8 0-1.7 0-2.4.4-.8.3-1.5.7-2 1.2a5.3 5.3 0 0 0-2 4.1v8.6h-1.8zM-429.2 109c0 .9.2 1.7.5 2.5.4.8.8 1.5 1.4 2a6.5 6.5 0 0 0 4.6 2 6.4 6.4 0 0 0 6-9 6.4 6.4 0 0 0-6-4 6.5 6.5 0 0 0-4.7 1.9 6.7 6.7 0 0 0-1.8 4.6zm-1.7 0a7.9 7.9 0 0 1 2.4-5.7c.7-.8 1.6-1.4 2.6-1.8a7.9 7.9 0 0 1 9 2l1 1.3a40.7 40.7 0 0 1 0-3.6c0-.5 1.5-.5 1.5 0v12c0 .6-1.5.6-1.6 0-.1.5-.4 1-.8 1.5a6.7 6.7 0 0 1-3.5 2.1 8.3 8.3 0 0 1-10-4.6c-.4-1-.6-2-.6-3.2zM-530.5 90.3s-5 12.7-5.2 12.6h10.4zm13 26.8h-1.8l-5.3-12.5h-11.8s-5.2 12.6-5.3 12.5h-1.8l12.3-30.4c.1-.3 1.2-.3 1.3 0l12.4 30.4z" font-family="Josefin Sans" font-size="42" style="line-height:0;-inkscape-font-specification:'Josefin Sans'" transform="matrix(1.85783 0 0 1.85783 1009.8 -158)"/>
    <g stroke-width=".6" font-family="charllie Personel Use" font-size="42.1" style="line-height:0;-inkscape-font-specification:'charllie Personel Use'">
      <path d="M-463 102.5c-.7 0-1.5.1-2.3.4a7 7 0 0 0-3.4 3 6.8 6.8 0 0 0-.5 4.3 470.2 470.2 0 0 1 11.3-4.5 5.9 5.9 0 0 0-5-3.2zm7.3 4.2a1578.4 1578.4 0 0 0-13 5.2 6.4 6.4 0 0 0 5.8 3.6c.9 0 1.7-.2 2.4-.5.8-.3 2-1.3 2-1.3.5-.2 1.4.7 1.1 1.3 0 0-1.5 1.2-2.5 1.6a8.3 8.3 0 0 1-6.3 0 8.7 8.7 0 0 1-4.4-4.3 8.3 8.3 0 0 1 1.8-9.1 8.6 8.6 0 0 1 5.9-2.4c.8 0 1.6.1 2.4.5.8.2 1.4.6 2 1.2a8.3 8.3 0 0 1 2.8 4.2z" aria-label="e" font-family="Josefin Sans" style="-inkscape-font-specification:'Josefin Sans'" transform="matrix(1.85783 0 0 1.85783 1009.7 -158)"/>
    </g>
  </g>
</svg>
