<?xml version="1.0" encoding="UTF-8" standalone="no"?>

<svg
   width="43.314968mm"
   height="80.28701mm"
   viewBox="0 0 43.314968 80.28701"
   version="1.1"
   id="svg5"
   inkscape:export-xdpi="96"
   inkscape:export-ydpi="96"
   xmlns:inkscape="http://www.inkscape.org/namespaces/inkscape"
   xmlns:sodipodi="http://sodipodi.sourceforge.net/DTD/sodipodi-0.dtd"
   xmlns="http://www.w3.org/2000/svg"
   xmlns:svg="http://www.w3.org/2000/svg">
  <sodipodi:namedview
     id="namedview7"
     pagecolor="#505050"
     bordercolor="#ffffff"
     borderopacity="1"/>
  <defs
     id="defs2" />
  <g
     inkscape:label="Camada 1"
     inkscape:groupmode="layer"
     id="layer1"
     transform="translate(-596.63673,-697.66449)">
    <path
       id="path6413"
       style="fill:#ececec;fill-opacity:1;stroke:none;stroke-width:0.93567px;stroke-linecap:butt;stroke-linejoin:miter;stroke-opacity:1"
       d="m 635.94079,697.66593 c -2.51819,-0.0715 -4.8271,2.53783 -4.8271,2.53783 -9.97876,18.44358 -20.42504,36.54555 -34.47696,52.01492 0.26312,8.66089 2.88397,14.47487 5.3051,20.53 0,0 -3.54779,5.21618 -3.57549,5.20279 9.82779,-6.58667 11.59774,-18.15444 11.59774,-18.15444 a 0.73145998,0.73145998 0 0 1 0.83199,-0.61288 0.73145998,0.73145998 0 0 1 0.61547,0.83198 c 0,0 -1.22611,8.19201 -7.40989,14.98513 0.0145,-0.007 0.0891,-0.0467 0.0982,-0.0506 7.17332,-3.09793 14.40097,-6.09566 19.68975,-12.69741 7.05193,-18.34502 12.11847,-36.93472 15.61197,-55.71908 0,0 2.03033,-5.94833 -1.70997,-8.32509 -0.57758,-0.367 -1.16968,-0.52662 -1.7508,-0.54311 z" />
  </g>
</svg>
