<svg xmlns="http://www.w3.org/2000/svg" width="1874" height="303.4" viewBox="0 0 495.8 80.3">
  <path fill="#37b790" d="M491.8 0c-2.5 0-4.8 2.5-4.8 2.5a258.6 258.6 0 0 1-34.5 52c.3 8.7 3 14.5 5.3 20.6l-3.5 5.2A29.7 29.7 0 0 0 465.8 62a.7.7 0 0 1 .9-.6.7.7 0 0 1 .6.9s-1.2 8.1-7.4 15v-.1c7.3-3.1 14.5-6.1 19.8-12.7 7-18.4 12-37 15.6-55.7 0 0 2-6-1.7-8.4a4 4 0 0 0-1.8-.5z"/>
  <g fill="#1a1a1a" font-weight="400" letter-spacing="0" word-spacing="0">
    <path d="M-55.3 56.6c0-.4.2-.7.4-1 .3-.3.6-.4 1-.4.3 0 .7.1 1 .4.2.3.4.6.4 1s-.2.7-.5 1c-.2.2-.6.4-.9.4-.4 0-.7-.2-1-.4-.2-.3-.4-.6-.4-1zm-.6 28.8c-.7.1-1.4-.8-1.2-1.2 0 0 1.2-1.6 1.7-2.6.4-1 .6-2.2.6-3.5v-16c0-.5 1.7-.6 1.7 0v16c0 1.6-.2 3-.7 4.3-.5 1.2-2 3-2 3zm4.9-15.1q0-1.7.7-3.2.7-1.5 1.8-2.6t2.6-1.8q1.5-.6 3.2-.6 1.7 0 3.2.6 1.5.7 2.7 1.8 1.1 1 1.7 2.6.7 1.5.7 3.2 0 1.7-.7 3.2-.6 1.5-1.7 2.6-1.2 1-2.7 1.7-1.5.7-3.2.7-1.7 0-3.2-.7-1.5-.6-2.6-1.7t-1.8-2.6q-.6-1.5-.6-3.2zm1.8 0q0 1.3.5 2.5t1.4 2q1 1 2 1.4 1.3.5 2.6.5t2.5-.5q1.2-.5 2-1.4 1-.8 1.5-2t.5-2.5q0-1.4-.5-2.5-.5-1.2-1.4-2.1-1-.9-2-1.4-1.3-.5-2.6-.5t-2.5.5q-1.2.5-2 1.4-1 .9-1.5 2-.5 1.2-.5 2.6zm-10.2 7.8H-61v-4a7.5 7.5 0 0 1-6.9 4.4 5 5 0 0 1-3.7-1.3c-.9-1-1.4-2-1.4-3.4V62.4c0-.5 1.7-.6 1.7 0v10.9c.1.9.4 1.7 1 2.3.6.7 1.5 1 2.7 1.1.8 0 1.6-.1 2.4-.4.8-.3 1.5-.7 2-1.2a5.3 5.3 0 0 0 2-4.1v-8.6c0-.6 1.8-.6 1.8 0zm-34-14s-1.7.2-2.5.5a5.7 5.7 0 0 0-3.3 3c-.3.7-.5 1.4-.5 2.3v8.6h-1.8V62.7c0-.4 1.6-.4 1.6 0v4.1a7 7 0 0 1 2.8-3.2c1.3-.8 3.9-1.2 3.9-1.2.4.2.4 1.6-.2 1.7zm1.9 6.2c0 .9.2 1.7.5 2.5s.8 1.5 1.3 2a6.5 6.5 0 0 0 4.7 2 6.4 6.4 0 0 0 6-9 6.4 6.4 0 0 0-6-4 6.5 6.5 0 0 0-4.7 1.9 6.7 6.7 0 0 0-1.8 4.6zm-1.8 0a7.9 7.9 0 0 1 2.4-5.8c.8-.7 1.7-1.3 2.7-1.7a7.9 7.9 0 0 1 9 1.9l.9 1.4a40.7 40.7 0 0 1 .1-3.7c0-.4 1.5-.4 1.5 0v12.1c0 .6-1.5.5-1.6 0a3 3 0 0 1-.9 1.4 6.7 6.7 0 0 1-3.4 2.2 8.3 8.3 0 0 1-10-4.6c-.5-1-.7-2-.7-3.2zm-23.2-18.7s-5 12.7-5.1 12.6h10.3zm13 26.9h-1.7l-5.4-12.6h-11.8l-5.3 12.6h-1.8l12.3-30.5c.2-.3 1.2-.3 1.3 0l12.4 30.5zm-118.3-8.2a6 6 0 0 0 1.9 4.5 6.5 6.5 0 0 0 7.2 1.4 6.4 6.4 0 0 0 4-6c0-.8-.2-1.7-.6-2.5a6.4 6.4 0 0 0-6-4 6.4 6.4 0 0 0-4.6 2 6.7 6.7 0 0 0-1.9 4.6zm-1.7 0a8 8 0 0 1 5-7.5 7.9 7.9 0 0 1 7.5.6c.6.3 1.1.8 1.5 1.2.5.5.8 1 1 1.5l-.2-2c-.3-5.7 0-17.4 0-17.4 0-.4 1.7-.5 1.7 0v27.8c-.8 1-1.6 0-1.6 0-.1.5-.4 1-.9 1.4a6.7 6.7 0 0 1-3.4 2.2c-.7.2-1.5.3-2.4.3a8.3 8.3 0 0 1-5.9-2.3 8 8 0 0 1-2.3-5.8zm27.4-6.2s-1.7.2-2.5.5a5.7 5.7 0 0 0-3.3 3c-.4.7-.5 1.4-.5 2.2v8.6h-1.8V62.7c0-.5 1.6-.5 1.6 0v4.1a7 7 0 0 1 2.8-3.2c1.3-.8 3.8-1.2 3.8-1.2.5.2.5 1.6-.1 1.7zm27.3-.1c.3.4-.6 1.4-1 1.2 0 0-.8-.7-1.4-1-.7-.2-1.3-.4-1.9-.4l-1 .2-1 .5a2 2 0 0 0-.6.8l-.2 1.1c0 .7.2 1.2.6 1.5.4.4.9.6 1.4.9l1.9.7a5 5 0 0 1 1.8.8c.6.3 1 .7 1.4 1.3.4.5.6 1.2.6 2.1 0 .5 0 1-.3 1.6-.1.5-.4 1-.8 1.5A5 5 0 0 1-171 78c-.6.3-1.4.4-2.4.4-.8 0-1.7-.1-2.7-.4-1-.3-2.2-1.5-2.2-1.5-.2-.5.5-1.5 1.1-1.3 0 0 1 .9 1.8 1.1.7.3 1.4.4 2.2.4l.9-.1a4 4 0 0 0 1-.5c.4-.3.7-.6.9-1 .2-.3.4-.7.4-1.3 0-.7-.2-1.3-.6-1.6a5 5 0 0 0-1.4-1 11 11 0 0 0-1.9-.6c-.6-.2-1.3-.4-1.9-.8-.5-.3-1-.7-1.4-1.2-.4-.5-.6-1.2-.6-2.1 0-.7.2-1.4.5-1.9a4.1 4.1 0 0 1 2.5-2.2c.5-.2 1-.3 1.6-.3a7 7 0 0 1 2.1.4c.9.3 2.2 1.4 2.2 1.4z" font-family="Josefin Sans" font-size="42" style="line-height:0;-inkscape-font-specification:'Josefin Sans'" transform="translate(497 -80.1) scale(1.85783)"/>
    <path d="M-168.8 64c.3.4-.6 1.4-1 1.2 0 0-.8-.7-1.4-1-.7-.2-1.3-.4-1.9-.4l-1 .2-1 .5a2 2 0 0 0-.6.8l-.2 1.1c0 .7.2 1.2.6 1.5.4.4.9.6 1.4.9l1.9.7a5 5 0 0 1 1.8.8c.6.3 1 .7 1.4 1.3.4.5.6 1.2.6 2.1 0 .5 0 1-.3 1.6-.1.5-.4 1-.8 1.5A5 5 0 0 1-171 78c-.6.3-1.4.4-2.4.4-.8 0-1.7-.1-2.7-.4-1-.3-2.2-1.5-2.2-1.5-.2-.5.5-1.5 1.1-1.3 0 0 1 .9 1.8 1.1.7.3 1.4.4 2.2.4l.9-.1a4 4 0 0 0 1-.5c.4-.3.7-.6.9-1 .2-.3.4-.7.4-1.3 0-.7-.2-1.3-.6-1.6a5 5 0 0 0-1.4-1 11 11 0 0 0-1.9-.6c-.6-.2-1.3-.4-1.9-.8-.5-.3-1-.7-1.4-1.2-.4-.5-.6-1.2-.6-2.1 0-.7.2-1.4.5-1.9a4.1 4.1 0 0 1 2.5-2.2c.5-.2 1-.3 1.6-.3a7 7 0 0 1 2.1.4c.9.3 2.2 1.4 2.2 1.4zm11.5 0c.3.4-.6 1.4-1 1.2l-1.5-1c-.6-.2-1.2-.4-1.8-.4l-1 .2-1 .5a2 2 0 0 0-.6.8c-.2.3-.2.7-.2 1.1 0 .7.2 1.2.6 1.5.4.4.9.6 1.4.9l1.9.7c.6.2 1.3.4 1.8.8.6.3 1 .7 1.4 1.3.4.5.6 1.2.6 2.1l-.3 1.6-.8 1.5a5 5 0 0 1-1.6 1.2c-.6.3-1.4.4-2.4.4-.9 0-1.8-.1-2.7-.4-1-.3-2.2-1.5-2.2-1.5-.2-.5.5-1.5 1-1.3a6.6 6.6 0 0 0 4 1.5l1-.1a4 4 0 0 0 1-.5l.8-1c.3-.3.4-.7.4-1.3 0-.7-.2-1.3-.5-1.6l-1.4-1a11 11 0 0 0-1.9-.6 6.4 6.4 0 0 1-3.3-2c-.4-.5-.6-1.2-.6-2.1a4.1 4.1 0 0 1 3-4c.5-.3 1-.4 1.5-.4a7 7 0 0 1 2.2.4c.8.3 2.2 1.4 2.2 1.4zm-81.6-1.3c0-.4 1.6-.4 1.6 0v4a7.5 7.5 0 0 1 6.9-4.4 5 5 0 0 1 3.7 1.4c.9.8 1.4 2 1.4 3.4v11.3h-1.7V67.5a4 4 0 0 0-1-2.3c-.6-.7-1.5-1-2.7-1.1-.8 0-1.6.2-2.4.5-.8.2-1.5.6-2 1.1a5.3 5.3 0 0 0-2 4.1v8.6h-1.8zm85.7 7.6a6 6 0 0 0 1.9 4.5 6.5 6.5 0 0 0 4.6 2 6.4 6.4 0 0 0 6-9 6.4 6.4 0 0 0-6-4 6.5 6.5 0 0 0-4.7 1.9 6.7 6.7 0 0 0-1.8 4.6zm-1.7 0a7.9 7.9 0 0 1 2.4-5.8c.7-.7 1.6-1.3 2.6-1.7a7.9 7.9 0 0 1 9 1.9l1 1.4a40.7 40.7 0 0 1 0-3.7c0-.4 1.5-.4 1.5 0v12.1c0 .6-1.5.5-1.5 0-.2.5-.5 1-1 1.4a6.7 6.7 0 0 1-3.4 2.2c-.7.2-1.5.3-2.4.3a8.3 8.3 0 0 1-7.6-4.9c-.4-1-.6-2-.6-3.2zm-99.6-18.7s-5 12.6-5.2 12.5h10.4zm13 26.8h-1.8l-5.3-12.6h-11.8s-5.2 12.7-5.3 12.6h-1.8l12.3-30.5c.1-.3 1.2-.3 1.3 0l12.4 30.5z" font-family="Josefin Sans" font-size="42" style="line-height:0;-inkscape-font-specification:'Josefin Sans'" transform="translate(497 -80.1) scale(1.85783)"/>
    <g style="line-height:0;-inkscape-font-specification:'charllie Personel Use'">
      <path d="M-463 102.5c-.7 0-1.5.1-2.3.4a7 7 0 0 0-3.4 3 6.8 6.8 0 0 0-.5 4.3 470.2 470.2 0 0 1 11.3-4.5 5.9 5.9 0 0 0-5-3.2zm7.3 4.2a1578.4 1578.4 0 0 0-13 5.2 6.4 6.4 0 0 0 5.8 3.6 6 6 0 0 0 2.4-.5c.8-.3 2-1.3 2-1.3.5-.2 1.4.7 1.1 1.3 0 0-1.5 1.2-2.5 1.6a8.3 8.3 0 0 1-6.3 0 8.7 8.7 0 0 1-4.4-4.3 8.3 8.3 0 0 1 1.8-9.1 8.6 8.6 0 0 1 5.9-2.4c.8 0 1.6.1 2.4.5.8.2 1.4.6 2 1.2a8.3 8.3 0 0 1 2.8 4.2z" aria-label="e" font-family="Josefin Sans" font-size="42.1" style="-inkscape-font-specification:'Josefin Sans'" transform="translate(1009.7 -152) scale(1.85783)"/>
    </g>
  </g>
</svg>
