<?xml version="1.0" encoding="UTF-8" standalone="no"?>
<!-- Created with Inkscape (http://www.inkscape.org/) -->

<svg
   width="495.83755mm"
   height="80.28701mm"
   viewBox="0 0 495.83755 80.28701"
   version="1.1"
   id="svg5"
   sodipodi:docname="logo-2023 -horizontal.svg"
   inkscape:version="1.1 (c68e22c387, 2021-05-23)"
   inkscape:export-filename="C:\Users\a\Desktop\logo-pena-2023.png"
   inkscape:export-xdpi="96"
   inkscape:export-ydpi="96"
   xmlns:inkscape="http://www.inkscape.org/namespaces/inkscape"
   xmlns:sodipodi="http://sodipodi.sourceforge.net/DTD/sodipodi-0.dtd"
   xmlns="http://www.w3.org/2000/svg"
   xmlns:svg="http://www.w3.org/2000/svg">
  <sodipodi:namedview
     id="namedview7"
     pagecolor="#505050"
     bordercolor="#ffffff"
     borderopacity="1"
     inkscape:pageshadow="0"
     inkscape:pageopacity="0"
     inkscape:pagecheckerboard="1"
     inkscape:document-units="mm"
     showgrid="false"
     inkscape:lockguides="false"
     inkscape:snap-global="true"
     showguides="true"
     inkscape:guide-bbox="true"
     inkscape:zoom="0.40660998"
     inkscape:cx="937.01585"
     inkscape:cy="151.25059"
     inkscape:window-width="1366"
     inkscape:window-height="705"
     inkscape:window-x="-8"
     inkscape:window-y="-8"
     inkscape:window-maximized="1"
     inkscape:current-layer="layer1" />
  <defs
     id="defs2" />
  <g
     inkscape:label="Camada 1"
     inkscape:groupmode="layer"
     id="layer1"
     transform="translate(-144.11413,-697.66449)">
    <g
       id="g1362">
      <path
         id="path6413"
         style="fill:#5be397;fill-opacity:1;stroke:none;stroke-width:0.93567px;stroke-linecap:butt;stroke-linejoin:miter;stroke-opacity:1"
         d="m 635.94079,697.66593 c -2.51819,-0.0715 -4.8271,2.53783 -4.8271,2.53783 -9.97876,18.44358 -20.42504,36.54555 -34.47696,52.01492 0.26312,8.66089 2.88397,14.47487 5.3051,20.53 0,0 -3.54779,5.21618 -3.57549,5.20279 9.82779,-6.58667 11.59774,-18.15444 11.59774,-18.15444 a 0.73145998,0.73145998 0 0 1 0.83199,-0.61288 0.73145998,0.73145998 0 0 1 0.61547,0.83198 c 0,0 -1.22611,8.19201 -7.40989,14.98513 0.0145,-0.007 0.0891,-0.0467 0.0982,-0.0506 7.17332,-3.09793 14.40097,-6.09566 19.68975,-12.69741 7.05193,-18.34502 12.11847,-36.93472 15.61197,-55.71908 0,0 2.03033,-5.94833 -1.70997,-8.32509 -0.57758,-0.367 -1.16968,-0.52662 -1.7508,-0.54311 z" />
      <g
         id="g1760"
         transform="matrix(1.8578343,0,0,1.8578343,641.10493,617.55844)"
         style="display:inline;fill:#ffffff;fill-opacity:1;stroke-width:0.97559">
        <g
           transform="translate(276.00846,-76.773222)"
           id="g1736"
           style="fill:#ffffff;fill-opacity:1;stroke-width:0.97559">
          <path
             inkscape:connector-curvature="0"
             d="m -331.27993,133.35288 c 0,-0.39159 0.13985,-0.71326 0.41956,-0.965 0.27971,-0.27971 0.60138,-0.41957 0.965,-0.41957 0.33565,0 0.64334,0.13986 0.92305,0.41957 0.27971,0.25174 0.41956,0.57341 0.41956,0.965 0,0.39159 -0.13985,0.72725 -0.41956,1.00696 -0.27971,0.25174 -0.5874,0.37761 -0.92305,0.37761 -0.36362,0 -0.68529,-0.12587 -0.965,-0.37761 -0.27971,-0.27971 -0.41956,-0.61537 -0.41956,-1.00696 z m -0.58739,28.8661 c -0.71216,0.0993 -1.45169,-0.80453 -1.2587,-1.2587 0,0 1.25869,-1.55239 1.67826,-2.55934 0.41957,-1.00696 0.62935,-2.18174 0.62935,-3.52435 V 138.9331 c 0,-0.57341 1.72022,-0.65975 1.72022,0 v 15.90153 c 0,1.65029 -0.25174,3.0908 -0.75522,4.32152 -0.47551,1.23073 -2.01391,3.06283 -2.01391,3.06283 z"
             style="font-style:normal;font-variant:normal;font-weight:normal;font-stretch:normal;font-size:41.9565px;line-height:0;font-family:'Josefin Sans';-inkscape-font-specification:'Josefin Sans';letter-spacing:0px;word-spacing:0px;fill:#ffffff;fill-opacity:1;stroke:none;stroke-width:0.548202"
             id="path1724"
             sodipodi:nodetypes="scscscscssscsssscs" />
          <path
             inkscape:connector-curvature="0"
             d="m -326.93349,147.04672 q 0,-1.67826 0.62935,-3.18869 0.67131,-1.51044 1.76218,-2.60131 1.13282,-1.13283 2.6013,-1.76217 1.51044,-0.67131 3.23066,-0.67131 1.72021,0 3.23065,0.67131 1.51044,0.62934 2.64326,1.76217 1.13283,1.09087 1.76218,2.60131 0.6713,1.51043 0.6713,3.18869 0,1.72022 -0.6713,3.23066 -0.62935,1.46848 -1.76218,2.55935 -1.13282,1.09087 -2.64326,1.76217 -1.51044,0.62935 -3.23065,0.62935 -1.72022,0 -3.23066,-0.62935 -1.46848,-0.6713 -2.6013,-1.76217 -1.09087,-1.09087 -1.76218,-2.55935 -0.62935,-1.51044 -0.62935,-3.23066 z m 1.76218,0 q 0,1.34261 0.50348,2.5174 0.50348,1.17478 1.38456,2.05587 0.88109,0.88108 2.05587,1.38456 1.17479,0.50348 2.5174,0.50348 1.34261,0 2.51739,-0.50348 1.17478,-0.50348 2.05587,-1.38456 0.88109,-0.88109 1.38457,-2.05587 0.54543,-1.17479 0.54543,-2.5174 0,-1.34261 -0.54543,-2.51739 -0.50348,-1.17478 -1.38457,-2.05587 -0.88109,-0.88109 -2.05587,-1.38457 -1.17478,-0.54543 -2.51739,-0.54543 -1.34261,0 -2.5174,0.54543 -1.17478,0.50348 -2.05587,1.38457 -0.88108,0.88109 -1.38456,2.05587 -0.50348,1.17478 -0.50348,2.51739 z"
             style="font-style:normal;font-variant:normal;font-weight:normal;font-stretch:normal;font-size:41.9565px;line-height:0;font-family:'Josefin Sans';-inkscape-font-specification:'Josefin Sans';letter-spacing:0px;word-spacing:0px;fill:#ffffff;fill-opacity:1;stroke:none;stroke-width:0.548202"
             id="path1726" />
          <path
             sodipodi:nodetypes="ccccsscssccccscsssc"
             inkscape:connector-curvature="0"
             id="path1728"
             style="font-style:normal;font-variant:normal;font-weight:normal;font-stretch:normal;font-size:41.9565px;line-height:0;font-family:'Josefin Sans';-inkscape-font-specification:'Josefin Sans';letter-spacing:0px;word-spacing:0px;fill:#ffffff;fill-opacity:1;stroke:none;stroke-width:0.548202"
             d="m -335.42749,154.89259 c 0,0.0125 -1.59434,0 -1.59434,0 0,0 -0.0167,-4.09063 -0.042,-4.06978 -0.55942,1.31464 -1.45449,2.37754 -2.68522,3.1887 -1.23073,0.81116 -2.62928,1.21674 -4.19565,1.21674 -1.53841,0 -2.75515,-0.43356 -3.65022,-1.30066 -0.89507,-0.8671 -1.37058,-1.99993 -1.42653,-3.39848 v -11.37022 c 0,-0.50758 1.76218,-0.6273 1.76218,0 v 10.9087 c 0.0559,0.89507 0.39159,1.67826 1.00696,2.34957 0.58739,0.6713 1.46847,1.03493 2.64326,1.09087 0.83913,0 1.65029,-0.15384 2.43348,-0.46153 0.78319,-0.27971 1.46848,-0.6713 2.05587,-1.17478 0.58739,-0.50348 1.0629,-1.10486 1.42652,-1.80413 0.33565,-0.69927 0.50348,-1.46848 0.50348,-2.30761 v -8.60109 c 0,-0.54748 1.76217,-0.58739 1.76217,0 z" />
          <path
             sodipodi:nodetypes="scscsccsscsccss"
             inkscape:connector-curvature="0"
             id="path1730"
             style="font-style:normal;font-variant:normal;font-weight:normal;font-stretch:normal;font-size:41.9565px;line-height:0;font-family:'Josefin Sans';-inkscape-font-specification:'Josefin Sans';letter-spacing:0px;word-spacing:0px;fill:#ffffff;fill-opacity:1;stroke:none;stroke-width:0.548202"
             d="m -369.3689,140.8791 c 0,0 -1.7342,0.19583 -2.51739,0.50348 -0.75522,0.27971 -1.41254,0.6713 -1.97196,1.17478 -0.55942,0.50348 -1.00696,1.10486 -1.34261,1.80413 -0.33565,0.69928 -0.50347,1.4545 -0.50347,2.26566 v 8.6011 h -1.76218 v -15.73372 c 0,-0.47061 1.59435,-0.47061 1.59435,0 v 1.46848 1.30066 c 0,0.39159 0.014,0.82514 0.042,1.30065 0.61536,-1.37058 1.5384,-2.43348 2.76913,-3.1887 1.25869,-0.78319 3.81804,-1.21674 3.81804,-1.21674 0.43364,0.24563 0.47123,1.65111 -0.12591,1.72022 z" />
          <path
             sodipodi:nodetypes="scccscccscscscccsccccsccccassssccccsccccc"
             inkscape:connector-curvature="0"
             id="path1732"
             style="font-style:normal;font-variant:normal;font-weight:normal;font-stretch:normal;font-size:41.9565px;line-height:0;font-family:'Josefin Sans';-inkscape-font-specification:'Josefin Sans';letter-spacing:0px;word-spacing:0px;fill:#ffffff;fill-opacity:1;stroke:none;stroke-width:0.548202"
             d="m -367.50905,147.0465 c 0,0.89507 0.16783,1.7342 0.50348,2.51739 0.33565,0.78319 0.78319,1.46848 1.34261,2.05587 0.58739,0.58739 1.27268,1.04892 2.05587,1.38457 0.81116,0.33565 1.67826,0.50348 2.60131,0.50348 0.92304,0 1.77616,-0.16783 2.55935,-0.50348 0.78319,-0.33565 1.46848,-0.79718 2.05587,-1.38457 0.58739,-0.58739 1.04891,-1.27268 1.38456,-2.05587 0.33565,-0.78319 0.50348,-1.62232 0.50348,-2.51739 0,-0.89507 -0.16783,-1.7342 -0.50348,-2.51739 -0.33565,-0.81116 -0.79717,-1.51044 -1.38456,-2.09783 -0.58739,-0.58739 -1.27268,-1.04891 -2.05587,-1.38456 -0.78319,-0.33565 -1.63631,-0.50348 -2.55935,-0.50348 -0.92305,0 -1.79015,0.16783 -2.60131,0.50348 -0.78319,0.33565 -1.46848,0.79717 -2.05587,1.38456 -0.55942,0.58739 -1.00696,1.28667 -1.34261,2.09783 -0.33565,0.78319 -0.50348,1.62232 -0.50348,2.51739 z m -1.76217,0 c 0,-1.11884 0.20978,-2.16775 0.62935,-3.14674 0.44753,-1.00696 1.03492,-1.87406 1.76217,-2.60131 0.75522,-0.75521 1.63631,-1.3426 2.64327,-1.76217 1.00695,-0.44753 2.08384,-0.6713 3.23065,-0.6713 0.81116,0 1.58036,0.12587 2.30761,0.3776 0.72725,0.22377 1.38457,0.53146 1.97196,0.92305 0.58739,0.36362 1.07688,0.79717 1.46848,1.30065 0.41956,0.47551 0.72724,0.95101 0.92304,1.42652 0,-0.61536 0.0141,-1.2312 0.042,-1.84608 0.028,-0.61616 0.12587,-1.84609 0.12587,-1.84609 -0.0613,-0.43511 1.42652,-0.41445 1.42652,0 v 12.10085 c 0,0.53145 -1.4746,0.49355 -1.55118,-0.0175 -0.001,-0.008 1.4e-4,-0.001 1.4e-4,-0.001 -0.16783,0.47551 -0.46287,0.95236 -0.88244,1.42787 -0.39159,0.47551 -0.88109,0.90907 -1.46848,1.30066 -0.55942,0.36362 -1.21674,0.65731 -1.97196,0.88108 -0.72725,0.22377 -1.52442,0.33566 -2.39152,0.33566 -1.14681,0 -2.2237,-0.20978 -3.23065,-0.62935 -1.00696,-0.44754 -1.88805,-1.03493 -2.64327,-1.76218 -0.72725,-0.72725 -1.31464,-1.58036 -1.76217,-2.55935 -0.41957,-1.00695 -0.62935,-2.08384 -0.62935,-3.23065 z" />
          <path
             inkscape:connector-curvature="0"
             d="m -392.4969,128.41942 c 0,0 -5.06603,12.63223 -5.16066,12.54501 h 10.36327 z m 13.00653,26.81023 h -1.76218 l -5.32848,-12.58696 h -11.78979 c 0,0 -5.20847,12.65079 -5.32848,12.58696 h -1.80413 l 12.31498,-30.4544 c 0.13504,-0.33396 1.20812,-0.32694 1.32664,-0.003 0,0 12.43261,30.64024 12.37144,30.45725 z"
             style="font-style:normal;font-variant:normal;font-weight:normal;font-stretch:normal;font-size:41.9565px;line-height:0;font-family:'Josefin Sans';-inkscape-font-specification:'Josefin Sans';letter-spacing:0px;word-spacing:0px;fill:#ffffff;fill-opacity:1;stroke:none;stroke-width:0.548202"
             id="path1734"
             sodipodi:nodetypes="ccccccccccsccc" />
        </g>
        <g
           transform="translate(276.00846,-38.738029)"
           id="g1758"
           style="fill:#ffffff;fill-opacity:1;stroke-width:0.97559">
          <path
             d="m -497.76492,109.00274 c 0,0.89507 0.16782,1.7342 0.50347,2.51739 0.33565,0.78319 0.78319,1.46848 1.34261,2.05587 0.58739,0.58739 1.27268,1.04892 2.05587,1.38457 0.78319,0.33565 1.63631,0.50348 2.55935,0.50348 0.92305,0 1.77616,-0.16783 2.55935,-0.50348 0.81116,-0.33565 1.51044,-0.79718 2.09783,-1.38457 0.58739,-0.58739 1.04892,-1.27268 1.38457,-2.05587 0.33565,-0.78319 0.50347,-1.62232 0.50347,-2.51739 0,-0.89507 -0.16782,-1.7342 -0.50347,-2.51739 -0.33565,-0.81116 -0.79718,-1.51044 -1.38457,-2.09783 -0.58739,-0.58739 -1.28667,-1.04891 -2.09783,-1.38457 -0.78319,-0.33565 -1.6363,-0.50347 -2.55935,-0.50347 -0.92304,0 -1.77616,0.16782 -2.55935,0.50347 -0.78319,0.33566 -1.46848,0.79718 -2.05587,1.38457 -0.55942,0.58739 -1.00696,1.28667 -1.34261,2.09783 -0.33565,0.78319 -0.50347,1.62232 -0.50347,2.51739 z m -1.76218,0 c 0,-1.11884 0.20978,-2.16775 0.62935,-3.14674 0.41957,-1.00696 0.99297,-1.87406 1.72022,-2.60131 0.75521,-0.75521 1.6363,-1.34261 2.64326,-1.76217 1.00696,-0.44754 2.08384,-0.6713 3.23065,-0.6713 0.83913,0 1.62232,0.12586 2.34957,0.3776 0.72725,0.22377 1.38457,0.53145 1.97196,0.92305 0.58739,0.36362 1.09087,0.78319 1.51043,1.25869 0.41957,0.47551 0.71326,0.95102 0.88109,1.42653 -0.0612,-0.64667 -0.13981,-1.25684 -0.1678,-1.88805 -0.25839,-5.826238 0,-17.495885 0,-17.495885 0,-0.415668 1.72022,-0.458687 1.72022,0 v 27.817065 c -0.76774,0.90626 -1.55239,0 -1.55239,0 v 1.3e-4 c -0.16783,0.47551 -0.46152,0.95101 -0.88109,1.42652 -0.39159,0.47551 -0.88109,0.90906 -1.46848,1.30066 -0.55942,0.36362 -1.21674,0.65731 -1.97195,0.88108 -0.72725,0.22377 -1.52442,0.33565 -2.39153,0.33565 -1.14681,0 -2.22369,-0.20978 -3.23065,-0.62934 -1.00696,-0.44754 -1.88805,-1.03493 -2.64326,-1.76218 -0.72725,-0.72725 -1.30065,-1.58036 -1.72022,-2.55935 -0.41957,-1.00695 -0.62935,-2.08384 -0.62935,-3.23065 z"
             style="font-style:normal;font-variant:normal;font-weight:normal;font-stretch:normal;font-size:41.9565px;line-height:0;font-family:'Josefin Sans';-inkscape-font-specification:'Josefin Sans';letter-spacing:0px;word-spacing:0px;fill:#ffffff;fill-opacity:1;stroke:none;stroke-width:0.548202"
             id="path1738"
             inkscape:connector-curvature="0"
             sodipodi:nodetypes="scccscscscscscccsccccsccccassccccccsccccc" />
          <path
             d="m -472.1065,102.83511 c 0,0 -1.7342,0.19583 -2.51739,0.50348 -0.75522,0.27971 -1.41254,0.6713 -1.97196,1.17478 -0.55942,0.50348 -1.00696,1.10486 -1.34261,1.80413 -0.33565,0.69928 -0.50347,1.4545 -0.50347,2.26566 v 8.6011 h -1.76218 v -15.73372 c 0,-0.47061 1.59435,-0.47061 1.59435,0 v 1.46848 1.30066 c 0,0.39159 0.014,0.82514 0.042,1.30065 0.61536,-1.37058 1.5384,-2.43348 2.76913,-3.1887 1.25869,-0.78319 3.81804,-1.21674 3.81804,-1.21674 0.43364,0.24563 0.47123,1.65111 -0.12591,1.72022 z"
             style="font-style:normal;font-variant:normal;font-weight:normal;font-stretch:normal;font-size:41.9565px;line-height:0;font-family:'Josefin Sans';-inkscape-font-specification:'Josefin Sans';letter-spacing:0px;word-spacing:0px;fill:#ffffff;fill-opacity:1;stroke:none;stroke-width:0.548202"
             id="path1740"
             inkscape:connector-curvature="0"
             sodipodi:nodetypes="scscsccsscsccss" />
          <path
             d="m -444.82383,102.66729 c 0.31488,0.42391 -0.5716,1.47818 -1.00696,1.2587 0,0 -0.81116,-0.71326 -1.42652,-0.965 -0.61537,-0.25174 -1.23073,-0.37761 -1.84609,-0.37761 -0.33565,0 -0.67131,0.0559 -1.00696,0.16783 -0.33565,0.0839 -0.64333,0.23775 -0.92304,0.46152 -0.27971,0.19579 -0.50348,0.46152 -0.67131,0.79717 -0.13985,0.30768 -0.20978,0.69928 -0.20978,1.17479 0.028,0.61536 0.23778,1.10485 0.62935,1.46847 0.39159,0.33565 0.8671,0.62935 1.42652,0.88109 0.55942,0.22377 1.17478,0.44754 1.84609,0.67131 0.67131,0.19579 1.28667,0.46152 1.84609,0.79717 0.55942,0.33565 1.02094,0.7692 1.38456,1.30065 0.39159,0.53145 0.58739,1.24472 0.58739,2.13979 0,0.47551 -0.0979,0.99297 -0.29369,1.55239 -0.16783,0.53145 -0.44754,1.03492 -0.83913,1.51043 -0.39159,0.47551 -0.90906,0.88109 -1.55239,1.21674 -0.64333,0.30769 -1.44051,0.46153 -2.39153,0.46153 -0.8671,0 -1.77616,-0.15384 -2.72717,-0.46153 -0.92305,-0.30768 -2.2237,-1.51043 -2.2237,-1.51043 -0.19966,-0.44495 0.55477,-1.43613 1.13283,-1.2587 0,0 1.03492,0.85312 1.76217,1.13283 0.72725,0.25174 1.45449,0.37761 2.18174,0.37761 0.25174,0 0.55942,-0.042 0.92305,-0.12587 0.36362,-0.11189 0.71326,-0.27971 1.04891,-0.50348 0.33565,-0.25174 0.61536,-0.55942 0.83913,-0.92304 0.25174,-0.36363 0.37761,-0.81116 0.37761,-1.34261 0,-0.72725 -0.18181,-1.28667 -0.54544,-1.67827 -0.36362,-0.39159 -0.83913,-0.69927 -1.42652,-0.92304 -0.55942,-0.25174 -1.17478,-0.46152 -1.84609,-0.62935 -0.6713,-0.19579 -1.30065,-0.44753 -1.88804,-0.75521 -0.55942,-0.30769 -1.03493,-0.71327 -1.42652,-1.21674 -0.39159,-0.50348 -0.58739,-1.21674 -0.58739,-2.13979 0,-0.72725 0.13985,-1.35659 0.41956,-1.88804 0.27971,-0.55942 0.64334,-1.02094 1.09087,-1.38457 0.44754,-0.36362 0.93703,-0.62934 1.46848,-0.79717 0.53145,-0.1958 1.04891,-0.2937 1.55239,-0.2937 0.58739,0 1.30066,0.13986 2.13979,0.41957 0.8671,0.25174 2.18174,1.38456 2.18174,1.38456 z"
             style="font-style:normal;font-variant:normal;font-weight:normal;font-stretch:normal;font-size:41.9565px;line-height:0;font-family:'Josefin Sans';-inkscape-font-specification:'Josefin Sans';letter-spacing:0px;word-spacing:0px;fill:#ffffff;fill-opacity:1;stroke:none;stroke-width:0.548202"
             id="path1742"
             inkscape:connector-curvature="0"
             sodipodi:nodetypes="sscscccccccscscccscsscscccssccccscccscs" />
          <path
             sodipodi:nodetypes="sscscccccccscscccscsscscccssccccscccscs"
             inkscape:connector-curvature="0"
             id="path1744"
             style="font-style:normal;font-variant:normal;font-weight:normal;font-stretch:normal;font-size:41.9565px;line-height:0;font-family:'Josefin Sans';-inkscape-font-specification:'Josefin Sans';letter-spacing:0px;word-spacing:0px;fill:#ffffff;fill-opacity:1;stroke:none;stroke-width:0.548202"
             d="m -444.82383,102.66729 c 0.31488,0.42391 -0.5716,1.47818 -1.00696,1.2587 0,0 -0.81116,-0.71326 -1.42652,-0.965 -0.61537,-0.25174 -1.23073,-0.37761 -1.84609,-0.37761 -0.33565,0 -0.67131,0.0559 -1.00696,0.16783 -0.33565,0.0839 -0.64333,0.23775 -0.92304,0.46152 -0.27971,0.19579 -0.50348,0.46152 -0.67131,0.79717 -0.13985,0.30768 -0.20978,0.69928 -0.20978,1.17479 0.028,0.61536 0.23778,1.10485 0.62935,1.46847 0.39159,0.33565 0.8671,0.62935 1.42652,0.88109 0.55942,0.22377 1.17478,0.44754 1.84609,0.67131 0.67131,0.19579 1.28667,0.46152 1.84609,0.79717 0.55942,0.33565 1.02094,0.7692 1.38456,1.30065 0.39159,0.53145 0.58739,1.24472 0.58739,2.13979 0,0.47551 -0.0979,0.99297 -0.29369,1.55239 -0.16783,0.53145 -0.44754,1.03492 -0.83913,1.51043 -0.39159,0.47551 -0.90906,0.88109 -1.55239,1.21674 -0.64333,0.30769 -1.44051,0.46153 -2.39153,0.46153 -0.8671,0 -1.77616,-0.15384 -2.72717,-0.46153 -0.92305,-0.30768 -2.2237,-1.51043 -2.2237,-1.51043 -0.19966,-0.44495 0.55477,-1.43613 1.13283,-1.2587 0,0 1.03492,0.85312 1.76217,1.13283 0.72725,0.25174 1.45449,0.37761 2.18174,0.37761 0.25174,0 0.55942,-0.042 0.92305,-0.12587 0.36362,-0.11189 0.71326,-0.27971 1.04891,-0.50348 0.33565,-0.25174 0.61536,-0.55942 0.83913,-0.92304 0.25174,-0.36363 0.37761,-0.81116 0.37761,-1.34261 0,-0.72725 -0.18181,-1.28667 -0.54544,-1.67827 -0.36362,-0.39159 -0.83913,-0.69927 -1.42652,-0.92304 -0.55942,-0.25174 -1.17478,-0.46152 -1.84609,-0.62935 -0.6713,-0.19579 -1.30065,-0.44753 -1.88804,-0.75521 -0.55942,-0.30769 -1.03493,-0.71327 -1.42652,-1.21674 -0.39159,-0.50348 -0.58739,-1.21674 -0.58739,-2.13979 0,-0.72725 0.13985,-1.35659 0.41956,-1.88804 0.27971,-0.55942 0.64334,-1.02094 1.09087,-1.38457 0.44754,-0.36362 0.93703,-0.62934 1.46848,-0.79717 0.53145,-0.1958 1.04891,-0.2937 1.55239,-0.2937 0.58739,0 1.30066,0.13986 2.13979,0.41957 0.8671,0.25174 2.18174,1.38456 2.18174,1.38456 z" />
          <path
             sodipodi:nodetypes="sscscccccccscscccscsscscccssccccscccscs"
             inkscape:connector-curvature="0"
             id="path1746"
             style="font-style:normal;font-variant:normal;font-weight:normal;font-stretch:normal;font-size:41.9565px;line-height:0;font-family:'Josefin Sans';-inkscape-font-specification:'Josefin Sans';letter-spacing:0px;word-spacing:0px;fill:#ffffff;fill-opacity:1;stroke:none;stroke-width:0.548202"
             d="m -433.3519,102.66729 c 0.31488,0.42391 -0.5716,1.47818 -1.00696,1.2587 0,0 -0.81116,-0.71326 -1.42652,-0.965 -0.61537,-0.25174 -1.23073,-0.37761 -1.84609,-0.37761 -0.33565,0 -0.67131,0.0559 -1.00696,0.16783 -0.33565,0.0839 -0.64333,0.23775 -0.92304,0.46152 -0.27971,0.19579 -0.50348,0.46152 -0.67131,0.79717 -0.13985,0.30768 -0.20978,0.69928 -0.20978,1.17479 0.028,0.61536 0.23778,1.10485 0.62935,1.46847 0.39159,0.33565 0.8671,0.62935 1.42652,0.88109 0.55942,0.22377 1.17478,0.44754 1.84609,0.67131 0.67131,0.19579 1.28667,0.46152 1.84609,0.79717 0.55942,0.33565 1.02094,0.7692 1.38456,1.30065 0.39159,0.53145 0.58739,1.24472 0.58739,2.13979 0,0.47551 -0.0979,0.99297 -0.29369,1.55239 -0.16783,0.53145 -0.44754,1.03492 -0.83913,1.51043 -0.39159,0.47551 -0.90906,0.88109 -1.55239,1.21674 -0.64333,0.30769 -1.44051,0.46153 -2.39153,0.46153 -0.8671,0 -1.77616,-0.15384 -2.72717,-0.46153 -0.92305,-0.30768 -2.2237,-1.51043 -2.2237,-1.51043 -0.19966,-0.44495 0.55477,-1.43613 1.13283,-1.2587 0,0 1.03492,0.85312 1.76217,1.13283 0.72725,0.25174 1.45449,0.37761 2.18174,0.37761 0.25174,0 0.55942,-0.042 0.92305,-0.12587 0.36362,-0.11189 0.71326,-0.27971 1.04891,-0.50348 0.33565,-0.25174 0.61536,-0.55942 0.83913,-0.92304 0.25174,-0.36363 0.37761,-0.81116 0.37761,-1.34261 0,-0.72725 -0.18181,-1.28667 -0.54544,-1.67827 -0.36362,-0.39159 -0.83913,-0.69927 -1.42652,-0.92304 -0.55942,-0.25174 -1.17478,-0.46152 -1.84609,-0.62935 -0.6713,-0.19579 -1.30065,-0.44753 -1.88804,-0.75521 -0.55942,-0.30769 -1.03493,-0.71327 -1.42652,-1.21674 -0.39159,-0.50348 -0.58739,-1.21674 -0.58739,-2.13979 0,-0.72725 0.13985,-1.35659 0.41956,-1.88804 0.27971,-0.55942 0.64334,-1.02094 1.09087,-1.38457 0.44754,-0.36362 0.93703,-0.62934 1.46848,-0.79717 0.53145,-0.1958 1.04891,-0.2937 1.55239,-0.2937 0.58739,0 1.30066,0.13986 2.13979,0.41957 0.8671,0.25174 2.18174,1.38456 2.18174,1.38456 z" />
          <path
             d="m -514.88485,101.45056 c 0,-0.41153 1.59434,-0.42652 1.59434,0 0,0 0.0167,4.09063 0.042,4.06978 0.55942,-1.31464 1.45449,-2.37754 2.68522,-3.1887 1.23073,-0.81116 2.62928,-1.21674 4.19565,-1.21674 1.53841,0 2.75515,0.43356 3.65022,1.30066 0.89507,0.8671 1.37058,1.99993 1.42653,3.39848 v 11.37022 h -1.76218 v -10.9087 c -0.0559,-0.89507 -0.39159,-1.67826 -1.00696,-2.34957 -0.58739,-0.6713 -1.46847,-1.03493 -2.64326,-1.09087 -0.83913,0 -1.65029,0.15384 -2.43348,0.46153 -0.78319,0.27971 -1.46848,0.6713 -2.05587,1.17478 -0.58739,0.50348 -1.0629,1.10486 -1.42652,1.80413 -0.33565,0.69927 -0.50348,1.46848 -0.50348,2.30761 v 8.60109 h -1.76217 z"
             style="font-style:normal;font-variant:normal;font-weight:normal;font-stretch:normal;font-size:41.9565px;line-height:0;font-family:'Josefin Sans';-inkscape-font-specification:'Josefin Sans';letter-spacing:0px;word-spacing:0px;fill:#ffffff;fill-opacity:1;stroke:none;stroke-width:0.548202"
             id="path1748"
             inkscape:connector-curvature="0"
             sodipodi:nodetypes="scccsscccccccscsccs" />
          <path
             sodipodi:nodetypes="scccscccscscscccsccccsccccassssccccsccccc"
             inkscape:connector-curvature="0"
             id="path1750"
             style="font-style:normal;font-variant:normal;font-weight:normal;font-stretch:normal;font-size:41.9565px;line-height:0;font-family:'Josefin Sans';-inkscape-font-specification:'Josefin Sans';letter-spacing:0px;word-spacing:0px;fill:#ffffff;fill-opacity:1;stroke:none;stroke-width:0.548202"
             d="m -429.16792,109.00251 c 0,0.89507 0.16783,1.7342 0.50348,2.51739 0.33565,0.78319 0.78319,1.46848 1.34261,2.05587 0.58739,0.58739 1.27268,1.04892 2.05587,1.38457 0.81116,0.33565 1.67826,0.50348 2.60131,0.50348 0.92304,0 1.77616,-0.16783 2.55935,-0.50348 0.78319,-0.33565 1.46848,-0.79718 2.05587,-1.38457 0.58739,-0.58739 1.04891,-1.27268 1.38456,-2.05587 0.33565,-0.78319 0.50348,-1.62232 0.50348,-2.51739 0,-0.89507 -0.16783,-1.7342 -0.50348,-2.51739 -0.33565,-0.81116 -0.79717,-1.51044 -1.38456,-2.09783 -0.58739,-0.58739 -1.27268,-1.04891 -2.05587,-1.38456 -0.78319,-0.33565 -1.63631,-0.50348 -2.55935,-0.50348 -0.92305,0 -1.79015,0.16783 -2.60131,0.50348 -0.78319,0.33565 -1.46848,0.79717 -2.05587,1.38456 -0.55942,0.58739 -1.00696,1.28667 -1.34261,2.09783 -0.33565,0.78319 -0.50348,1.62232 -0.50348,2.51739 z m -1.76217,0 c 0,-1.11884 0.20978,-2.16775 0.62935,-3.14674 0.44753,-1.00696 1.03492,-1.87406 1.76217,-2.60131 0.75522,-0.75521 1.63631,-1.3426 2.64327,-1.76217 1.00695,-0.44753 2.08384,-0.6713 3.23065,-0.6713 0.81116,0 1.58036,0.12587 2.30761,0.3776 0.72725,0.22377 1.38457,0.53146 1.97196,0.92305 0.58739,0.36362 1.07688,0.79717 1.46848,1.30065 0.41956,0.47551 0.72724,0.95101 0.92304,1.42652 0,-0.61536 0.0141,-1.2312 0.042,-1.84608 0.028,-0.61616 0.12587,-1.84609 0.12587,-1.84609 -0.0613,-0.43511 1.42652,-0.41445 1.42652,0 v 12.10085 c 0,0.53145 -1.4746,0.49355 -1.55118,-0.0175 -10e-4,-0.008 1.4e-4,-0.001 1.4e-4,-0.001 -0.16783,0.47551 -0.46287,0.95236 -0.88244,1.42787 -0.39159,0.47551 -0.88109,0.90907 -1.46848,1.30066 -0.55942,0.36362 -1.21674,0.65731 -1.97196,0.88108 -0.72725,0.22377 -1.52442,0.33566 -2.39152,0.33566 -1.14681,0 -2.2237,-0.20978 -3.23065,-0.62935 -1.00696,-0.44754 -1.88805,-1.03493 -2.64327,-1.76218 -0.72725,-0.72725 -1.31464,-1.58036 -1.76217,-2.55935 -0.41957,-1.00695 -0.62935,-2.08384 -0.62935,-3.23065 z" />
          <path
             sodipodi:nodetypes="ccccccccccsccc"
             id="path1752"
             style="font-style:normal;font-variant:normal;font-weight:normal;font-stretch:normal;font-size:41.9565px;line-height:0;font-family:'Josefin Sans';-inkscape-font-specification:'Josefin Sans';letter-spacing:0px;word-spacing:0px;fill:#ffffff;fill-opacity:1;stroke:none;stroke-width:0.548202"
             d="m -530.51276,90.329827 c 0,0 -5.06603,12.632233 -5.16066,12.545013 h 10.36327 z m 13.00653,26.810233 h -1.76218 l -5.32848,-12.58696 h -11.78979 c 0,0 -5.20847,12.65079 -5.32848,12.58696 h -1.80413 l 12.31498,-30.454403 c 0.13504,-0.33396 1.20812,-0.32694 1.32664,-0.003 0,0 12.43261,30.640243 12.37144,30.457253 z"
             inkscape:connector-curvature="0" />
          <g
             aria-label="e"
             style="font-style:normal;font-variant:normal;font-weight:normal;font-stretch:normal;font-size:42.1053px;line-height:0;font-family:'charllie Personel Use';-inkscape-font-specification:'charllie Personel Use';letter-spacing:0px;word-spacing:0px;fill:#ffffff;fill-opacity:1;stroke:none;stroke-width:0.550144"
             id="g1756"
             transform="translate(-0.06127257)">
            <path
               d="m -462.90602,102.47221 c -0.84211,0 -1.64211,0.15438 -2.4,0.46315 -0.75789,0.28071 -1.41754,0.68773 -1.97895,1.22106 -0.5614,0.53333 -1.02456,1.15088 -1.38947,1.85263 -0.33684,0.70175 -0.54737,1.45965 -0.63158,2.27368 -0.0281,0.33684 -0.0421,0.67368 -0.0421,1.01053 0.0281,0.30877 0.0702,0.61754 0.12631,0.92631 1.8807,-0.75789 3.7614,-1.50175 5.64211,-2.23158 1.8807,-0.75789 3.77543,-1.51579 5.6842,-2.27368 -0.47719,-0.95439 -1.1649,-1.72632 -2.06315,-2.31579 -0.89825,-0.61754 -1.8807,-0.92631 -2.94737,-0.92631 z m 7.2421,4.21052 c -2.18947,0.87017 -4.36491,1.74035 -6.52631,2.61053 -2.16141,0.8421 -4.33684,1.69824 -6.52631,2.56842 0.47719,1.06667 1.23508,1.93684 2.27368,2.61052 1.03859,0.67369 2.21754,1.01053 3.53684,1.01053 0.87017,0 1.68421,-0.15439 2.4421,-0.46316 0.7579,-0.30877 1.96363,-1.3359 1.96363,-1.3359 0.53934,-0.22643 1.37096,0.71745 1.11006,1.3359 0,0 -1.5579,1.20702 -2.48421,1.6 -0.92632,0.39298 -1.93685,0.58947 -3.03158,0.58947 -1.15088,0 -2.23158,-0.21053 -3.2421,-0.63158 -0.98246,-0.44912 -1.85264,-1.03859 -2.61053,-1.76842 -0.72983,-0.72982 -1.3193,-1.58596 -1.76842,-2.56842 -0.42105,-1.01053 -0.63158,-2.09123 -0.63158,-3.2421 0,-1.12281 0.21053,-2.18947 0.63158,-3.2 0.44912,-1.01053 1.03859,-1.8807 1.76842,-2.61053 0.75789,-0.72982 1.62807,-1.30526 2.61053,-1.72631 1.01052,-0.44912 2.09122,-0.67368 3.2421,-0.67368 0.84211,0 1.64211,0.15438 2.4,0.46315 0.75789,0.28071 1.44561,0.68773 2.06316,1.22106 0.64561,0.50526 1.20702,1.1228 1.68421,1.85263 0.47719,0.70175 0.8421,1.48772 1.09473,2.35789 z"
               style="font-style:normal;font-variant:normal;font-weight:normal;font-stretch:normal;font-family:'Josefin Sans';-inkscape-font-specification:'Josefin Sans';fill:#ffffff;fill-opacity:1;stroke-width:0.550144"
               id="path1754"
               inkscape:connector-curvature="0"
               sodipodi:nodetypes="scccccccccsccccscsscscccscccscccc" />
          </g>
        </g>
      </g>
    </g>
  </g>
</svg>
